<?xml version="1.0" encoding="UTF-8" standalone="no"?>
<svg
   xmlns:dc="http://purl.org/dc/elements/1.1/"
   xmlns:cc="http://creativecommons.org/ns#"
   xmlns:rdf="http://www.w3.org/1999/02/22-rdf-syntax-ns#"
   xmlns:svg="http://www.w3.org/2000/svg"
   xmlns="http://www.w3.org/2000/svg"
   xmlns:sodipodi="http://sodipodi.sourceforge.net/DTD/sodipodi-0.dtd"
   xmlns:inkscape="http://www.inkscape.org/namespaces/inkscape"
   viewBox="0 0 512 512"
   version="1.1"
   id="svg56"
   sodipodi:docname="d20.svg"
   inkscape:version="1.0.1 (1.0.1+r73)">
  <metadata
     id="metadata62">
    <rdf:RDF>
      <cc:Work
         rdf:about="">
        <dc:format>image/svg+xml</dc:format>
        <dc:type
           rdf:resource="http://purl.org/dc/dcmitype/StillImage" />
      </cc:Work>
    </rdf:RDF>
  </metadata>
  <defs
     id="defs60" />
  <sodipodi:namedview
     pagecolor="#ffffff"
     bordercolor="#666666"
     borderopacity="1"
     objecttolerance="10"
     gridtolerance="10"
     guidetolerance="10"
     inkscape:pageopacity="0"
     inkscape:pageshadow="2"
     inkscape:window-width="1324"
     inkscape:window-height="708"
     id="namedview58"
     showgrid="false"
     inkscape:zoom="0.52050781"
     inkscape:cx="597.90732"
     inkscape:cy="365.99449"
     inkscape:window-x="20"
     inkscape:window-y="38"
     inkscape:window-maximized="0"
     inkscape:current-layer="svg56" />
  <path
     fill="#000000"
     d="M 248,20.3 72.33,132.6 248,128.8 Z m 16,0 v 108.5 l 175.7,3.8 z M 241.9,144.9 55.39,149 126.6,341.9 Z m 28.2,0 115.3,197 L 456.6,149 Z M 256,152.4 138.9,352.6 H 373.1 Z M 52,186 v 173.2 l 61.9,-5.7 z m 408,0 -61.9,167.5 61.9,5.7 z M 143.2,368.6 256,491.7 368.8,368.6 Z m -21.4,0.3 -53.84,4.9 75.74,48.4 65.1,41.7 z m 268.4,0 -46.7,51 v 0 l -40.3,44 86.3,-55.2 v 0 L 444,373.8 Z"
     id="path54"
     sodipodi:nodetypes="ccccccccccccccccccccccccccccccccccccccccccccc" />
</svg>
