<?xml version="1.0" encoding="UTF-8" standalone="no"?>
<svg
   xmlns:dc="http://purl.org/dc/elements/1.1/"
   xmlns:cc="http://creativecommons.org/ns#"
   xmlns:rdf="http://www.w3.org/1999/02/22-rdf-syntax-ns#"
   xmlns:svg="http://www.w3.org/2000/svg"
   xmlns="http://www.w3.org/2000/svg"
   xmlns:sodipodi="http://sodipodi.sourceforge.net/DTD/sodipodi-0.dtd"
   xmlns:inkscape="http://www.inkscape.org/namespaces/inkscape"
   viewBox="0 0 512 512"
   version="1.1"
   id="svg434"
   sodipodi:docname="d6.svg"
   inkscape:version="1.0.1 (1.0.1+r73)">
  <metadata
     id="metadata440">
    <rdf:RDF>
      <cc:Work
         rdf:about="">
        <dc:format>image/svg+xml</dc:format>
        <dc:type
           rdf:resource="http://purl.org/dc/dcmitype/StillImage" />
      </cc:Work>
    </rdf:RDF>
  </metadata>
  <defs
     id="defs438" />
  <sodipodi:namedview
     pagecolor="#ffffff"
     bordercolor="#666666"
     borderopacity="1"
     objecttolerance="10"
     gridtolerance="10"
     guidetolerance="10"
     inkscape:pageopacity="0"
     inkscape:pageshadow="2"
     inkscape:window-width="1324"
     inkscape:window-height="708"
     id="namedview436"
     showgrid="false"
     inkscape:zoom="1.1582031"
     inkscape:cx="256"
     inkscape:cy="256"
     inkscape:window-x="20"
     inkscape:window-y="38"
     inkscape:window-maximized="0"
     inkscape:current-layer="svg434" />
  <path
     fill="#000000"
     d="m 255.703,44.764 c -6.176,0 -12.353,1.384 -17.137,4.152 l -152.752,88.36 c -9.57,5.535 -9.57,14.29 0,19.826 l 152.752,88.359 c 9.57,5.536 24.703,5.536 34.272,0 l 152.754,-88.36 c 9.57,-5.534 9.57,-14.289 0,-19.824 L 272.838,48.916 c -4.785,-2.77 -10.96,-4.152 -17.135,-4.152 z M 238.695,87.27 c -159.13,-58.18 -79.565,-29.09 0,0 z m 197.172,86.544 c -1.938,0.074 -4.218,0.858 -6.955,2.413 l -146.935,84.847 c -9.57,5.527 -17.14,18.638 -17.14,29.69 v 157.699 c 0,11.05 7.57,15.419 17.14,9.89 L 428.914,373.51 c 9.57,-5.527 17.137,-18.636 17.137,-29.688 v -157.7 c -2.497,-8.048 -5.23,-12.495 -10.184,-12.308 z m -359.763,0.48 c -6.227,0 -10.033,5.325 -10.155,11.825 v 157.697 c 0,11.052 7.57,24.163 17.14,29.69 l 146.93,84.848 c 9.57,5.526 17.141,1.156 17.141,-9.895 v -157.7 c 0,-11.051 -7.57,-24.159 -17.14,-29.687 L 83.09,176.225 c -2.567,-1.338 -4.911,-1.93 -6.986,-1.93 z"
     id="path432"
     sodipodi:nodetypes="sccccccccscccccssccsccccsccsscccc" />
</svg>
